<?xml version="1.0" encoding="utf-8"?>
<!-- Generator: Adobe Illustrator 16.0.2, SVG Export Plug-In . SVG Version: 6.00 Build 0)  -->
<!DOCTYPE svg PUBLIC "-//W3C//DTD SVG 1.1//EN" "http://www.w3.org/Graphics/SVG/1.1/DTD/svg11.dtd">
<svg version="1.1" id="Layer_1" xmlns="http://www.w3.org/2000/svg" xmlns:xlink="http://www.w3.org/1999/xlink" x="0px" y="0px"
	 width="803.959px" height="404.98px" viewBox="0 0 803.959 404.98" enable-background="new 0 0 803.959 404.98"
	 xml:space="preserve">
<g>
	<g>
		<path fill="#5E63E6" d="M223.889,185.899c-0.287-22.213-13.074-42.638-33.976-50.97c-11.375-4.535-23.107-4.03-35.057-4.03
			c-25.613,0-51.226,0-76.839,0c-21.185,0-41.214,11.625-51.15,30.413c-6.122,11.576-5.979,23.848-5.979,36.457
			c0,26.208,0,52.415,0,78.622c0,29.789,23.483,54.448,52.81,57.332c7.957,0.783,16.217,0.177,24.192,0.177
			c7.999,0,15.999,0,23.998,0c6.449,0,6.449-10,0-10c-12.499,0-24.998,0-37.496,0c-6.401,0-12.538-0.035-18.807-1.717
			c-10.911-2.928-20.411-10.276-26.729-19.533c-7.798-11.427-7.969-23.823-7.969-36.93c0-15.224,0-30.447,0-45.671
			c0-11.153,0-22.307,0-33.461c0-20.114,13.162-37.117,32.105-43.371c10.335-3.413,22.07-2.317,32.819-2.317
			c15.797,0,31.594,0,47.391,0c9.911,0,19.96-0.481,29.86,0.162c23.506,1.526,40.529,21.962,40.824,44.838
			C213.972,192.342,223.973,192.351,223.889,185.899L223.889,185.899z"/>
	</g>
</g>
<path fill="#FFFFFF" stroke="#441784" stroke-width="10" stroke-miterlimit="10" d="M218.889,231.899"/>
<g>
	<g>
		<path fill="#2583E8" d="M570.558,285.228c3.428,22.66,20.64,41.009,42.878,46.275c10.211,2.418,21.614,1.396,32.025,1.396
			c15.847,0,31.693,0,47.539,0c9.738,0,19.731,0.621,29.445-0.299c22.527-2.135,41.274-18.174,48.07-39.526
			c3.36-10.557,2.373-22.348,2.373-33.294c0-25.089,0.319-50.199-0.019-75.285c-0.309-22.801-15.312-42.465-36.029-50.911
			c-11.036-4.499-23.084-3.686-34.735-3.686c-25.387,0-50.772,0-76.159,0c-0.02,0-0.038,0-0.058,0c-6.448,0-6.448,10,0,10
			c24.891,0,49.782,0,74.673,0c11.423,0,22.711-0.788,33.621,3.329c17.958,6.776,28.706,25.143,28.706,43.798
			c0,26.674,0,53.349,0,80.024c0,3.24,0,6.48,0,9.721c0,10.117-3.309,19.528-9.157,27.725
			c-9.667,13.548-25.265,18.404-41.143,18.404c-23.973,0-47.944,0-71.917,0c-8.096,0-16.614,0.62-24.577-1.038
			c-19.219-4.004-33.014-20.247-35.895-39.291C579.239,276.21,569.604,278.922,570.558,285.228L570.558,285.228z"/>
	</g>
</g>
<g>
	<g>
		<g>
			<path fill="#03B7A1" d="M498.889,205.899c0-15.895,0.992-31.286-6.375-45.961c-9.275-18.477-29.397-30.039-49.854-30.039
				c-25.825,0-51.65,0-77.475,0c-4.427,0-8.854,0-13.282,0c-14.038,0-27.243,5.381-37.721,14.604
				c-10.752,9.464-16.791,23.13-18.125,37.213c-0.755,7.966-0.169,16.19-0.169,24.183c0,6.448,10,6.448,10,0
				c0-15.917-1.324-31.376,7.664-45.446c9.256-14.489,25.243-20.554,41.77-20.554c27.269,0,54.538,0,81.808,0
				c4.233,0,8.503-0.138,12.702,0.489c11.564,1.727,21.65,7.969,29.082,16.858c11.657,13.943,9.975,31.761,9.975,48.653
				C488.889,212.347,498.889,212.347,498.889,205.899L498.889,205.899z"/>
		</g>
	</g>
	<g>
		<g>
			<path fill="#03B7A1" d="M295.889,252.899c0,14.117-1.491,29.166,3.216,42.708c7.456,21.449,27.621,35.704,49.985,37.217
				c9.424,0.637,19.048,0.075,28.483,0.075c15.797,0,31.594,0,47.391,0c5.898,0,11.798,0,17.696,0
				c14.133,0,27.374-5.309,37.935-14.604c11.777-10.368,18.085-25.881,18.294-41.396c0.107-7.997,0-16.002,0-24
				c0-6.448-10-6.448-10,0c0,13.943,1.878,29.46-3.856,42.54c-7.611,17.359-24.905,27.46-43.527,27.46c-26.802,0-53.604,0-80.406,0
				c-4,0-8.011,0.087-12.009-0.075c-13.068-0.53-24.968-7.393-33.227-17.272c-12.412-14.846-9.975-34.692-9.975-52.652
				C305.889,246.451,295.889,246.451,295.889,252.899L295.889,252.899z"/>
		</g>
	</g>
</g>
<g>
	<g>
		<path fill="#5E63E6" d="M277.737,226.8c2.75,2.75,5.5,5.5,8.25,8.25c0-1.768,0-3.535,0-5.303
			c-3.042,3.041-6.083,6.083-9.125,9.125c-3.422,3.423,1.881,8.726,5.304,5.303c3.042-3.041,6.083-6.083,9.125-9.125
			c1.444-1.444,1.444-3.858,0-5.303c-2.75-2.75-5.5-5.5-8.25-8.25C279.618,218.075,274.315,223.377,277.737,226.8L277.737,226.8z"/>
	</g>
</g>
<g>
	<g>
		<path fill="#5E63E6" d="M224.889,236.149c20.917,0,41.833,0,62.75,0c4.836,0,4.836-7.5,0-7.5c-20.917,0-41.833,0-62.75,0
			C220.053,228.649,220.053,236.149,224.889,236.149L224.889,236.149z"/>
	</g>
</g>
<g>
	<g>
		<path fill="#03B7A1" d="M554.738,226.8c2.75,2.75,5.5,5.5,8.25,8.25c0-1.768,0-3.535,0-5.303
			c-3.042,3.041-6.084,6.083-9.125,9.125c-3.423,3.423,1.88,8.726,5.303,5.303c3.042-3.041,6.084-6.083,9.125-9.125
			c1.445-1.444,1.445-3.858,0-5.303c-2.75-2.75-5.5-5.5-8.25-8.25C556.618,218.075,551.315,223.377,554.738,226.8L554.738,226.8z"/>
	</g>
</g>
<g>
	<g>
		<path fill="#03B7A1" d="M501.889,236.149c20.917,0,41.833,0,62.75,0c4.837,0,4.837-7.5,0-7.5c-20.917,0-41.833,0-62.75,0
			C497.052,228.649,497.052,236.149,501.889,236.149L501.889,236.149z"/>
	</g>
</g>
<g>
	<g>
		<path fill="#2583E8" d="M648.526,217.911c8.693-8.693,17.387-17.386,26.08-26.08c-2.356,0-4.714,0-7.07,0
			c9.205,9.205,18.41,18.411,27.616,27.616c4.563,4.564,11.635-2.507,7.07-7.07c-9.205-9.206-18.41-18.411-27.616-27.617
			c-1.926-1.926-5.145-1.926-7.07,0c-8.693,8.693-17.387,17.387-26.08,26.081C636.891,215.404,643.962,222.475,648.526,217.911
			L648.526,217.911z"/>
	</g>
</g>
<g>
	<g>
		<path fill="#2583E8" d="M676.071,278.565c0-29.562,0-59.122,0-88.684c0-6.449-10-6.449-10,0c0,29.562,0,59.122,0,88.684
			C666.071,285.013,676.071,285.013,676.071,278.565L676.071,278.565z"/>
	</g>
</g>
<circle fill="#5E63E6" cx="120.327" cy="233.211" r="13.063"/>
<circle fill="#5E63E6" cx="332.609" cy="371.385" r="4.423"/>
<circle fill="#5E63E6" cx="151.327" cy="233.211" r="13.063"/>
<circle fill="#03B7A1" cx="462.327" cy="194.211" r="13.063"/>
<circle fill="#5E63E6" cx="89.327" cy="233.211" r="13.063"/>
<g>
	<path fill="#03B7A1" d="M351.76,230.557c-2.001-0.173-3.871-0.488-5.871-0.936v1.781
		C347.889,230.986,349.761,230.704,351.76,230.557z"/>
	<path fill="#03B7A1" d="M399.278,283.899c-0.902-4-1.389-7.5-1.389-11.198c0-22.034,17.066-40.319,38.699-41.894
		c-21.354-1.853-38.113-19.388-38.113-41.223c0-2.758,0.275-5.686,0.785-7.686h-1.863c0.511,2,0.785,4.802,0.785,7.561
		c0,22.034-17.066,39.82-38.698,41.393c21.354,1.854,38.112,20.139,38.112,41.974c0,3.698-0.486,7.073-1.389,11.073H399.278z"/>
	<path fill="#03B7A1" d="M442.311,230.602c1.899,0.165,4.578,0.457,5.578,0.868v-1.646
		C446.889,230.208,444.208,230.464,442.311,230.602z"/>
</g>
<g>
	<path d="M221.906,42.873h-24.267v-8.76h59.07v8.76h-24.386v71.026h-10.417V42.873z"/>
	<path d="M260.026,74.479c0-6.747-0.118-12.548-0.473-17.875h9.115l0.474,11.246h0.355c2.604-7.694,8.997-12.548,15.981-12.548
		c1.065,0,1.894,0.118,2.841,0.354v9.707c-1.184-0.118-2.249-0.236-3.67-0.236c-7.339,0-12.548,5.563-13.968,13.258
		c-0.237,1.539-0.355,3.196-0.355,4.973v30.541h-10.417L260.026,74.479z"/>
	<path d="M304.063,46.069c-3.906,0-6.511-3.078-6.511-6.748s2.723-6.629,6.748-6.629s6.629,2.959,6.629,6.629
		s-2.604,6.748-6.748,6.748H304.063z M299.092,113.899V56.604h10.417v57.295H299.092z"/>
	<path d="M326.793,72.112c0-6.037-0.119-10.772-0.474-15.508h9.233l0.592,9.352h0.236c2.841-5.326,9.47-10.653,18.94-10.653
		c7.932,0,20.243,4.734,20.243,24.386v34.211h-10.417V80.872c0-9.233-3.433-17.047-13.258-17.047
		c-6.748,0-12.075,4.854-13.969,10.654c-0.474,1.303-0.71,3.196-0.71,4.854v34.566h-10.417V72.112z"/>
	<path d="M397.467,46.069c-3.906,0-6.511-3.078-6.511-6.748s2.723-6.629,6.748-6.629c4.025,0,6.63,2.959,6.63,6.629
		s-2.604,6.748-6.748,6.748H397.467z M392.495,113.899V56.604h10.417v57.295H392.495z"/>
	<path d="M418.775,103.364c3.196,1.894,8.642,4.024,13.851,4.024c7.458,0,11.009-3.67,11.009-8.523
		c0-4.972-2.959-7.694-10.535-10.535c-10.417-3.788-15.271-9.353-15.271-16.218c0-9.233,7.576-16.81,19.769-16.81
		c5.801,0,10.891,1.539,13.969,3.551l-2.486,7.458c-2.249-1.302-6.392-3.314-11.719-3.314c-6.156,0-9.471,3.552-9.471,7.813
		c0,4.854,3.314,6.984,10.772,9.826c9.825,3.669,15.034,8.642,15.034,17.282c0,10.181-7.932,17.283-21.308,17.283
		c-6.274,0-12.075-1.657-16.1-4.024L418.775,103.364z"/>
	<path fill="#2583E8" d="M509.81,93.419l-5.564,20.479h-18.703l24.386-79.786h23.557l24.859,79.786H538.93l-6.155-20.479H509.81z
		 M530.052,79.924l-4.972-16.928c-1.303-4.735-2.723-10.772-3.906-15.39h-0.355c-1.065,4.735-2.367,10.772-3.552,15.39
		l-4.854,16.928H530.052z"/>
	<path fill="#2583E8" d="M587.113,34.113v79.786H569.12V34.113H587.113z"/>
</g>
<g>
	<path fill="#2583E8" d="M198.629,382.697c-0.979,0.471-3.299,1.051-6.236,1.051c-8.447,0-12.798-5.293-12.798-12.29
		c0-8.339,5.946-12.943,13.342-12.943c2.864,0,5.04,0.58,6.018,1.088l-1.16,4.351c-1.087-0.472-2.646-0.906-4.641-0.906
		c-4.351,0-7.758,2.646-7.758,8.121c0,4.895,2.9,7.976,7.794,7.976c1.704,0,3.517-0.326,4.641-0.797L198.629,382.697z"/>
	<path fill="#2583E8" d="M211.534,383.748c-7.215,0-11.493-5.474-11.493-12.435c0-7.324,4.713-12.799,11.892-12.799
		c7.504,0,11.602,5.62,11.602,12.363c0,8.049-4.822,12.87-11.964,12.87H211.534z M211.788,379.361c3.734,0,5.873-3.517,5.873-8.302
		c0-4.387-2.066-8.158-5.873-8.158s-5.946,3.698-5.946,8.267c0,4.604,2.211,8.193,5.91,8.193H211.788z"/>
	<path fill="#2583E8" d="M227.193,358.914h5.511v19.795h9.716v4.641h-15.227V358.914z"/>
	<path fill="#2583E8" d="M245.717,358.914h5.511v19.795h9.716v4.641h-15.227V358.914z"/>
	<path fill="#2583E8" d="M278.743,373.016h-8.991v5.801h10.042v4.532h-15.553v-24.436h15.046v4.531h-9.535v5.076h8.991V373.016z"/>
	<path fill="#2583E8" d="M301.472,382.697c-0.979,0.471-3.299,1.051-6.236,1.051c-8.447,0-12.798-5.293-12.798-12.29
		c0-8.339,5.946-12.943,13.342-12.943c2.864,0,5.04,0.58,6.018,1.088l-1.16,4.351c-1.087-0.472-2.646-0.906-4.641-0.906
		c-4.351,0-7.758,2.646-7.758,8.121c0,4.895,2.9,7.976,7.794,7.976c1.704,0,3.517-0.326,4.641-0.797L301.472,382.697z"/>
	<path fill="#2583E8" d="M309.88,363.554h-6.598v-4.641h18.78v4.641h-6.671v19.795h-5.511V363.554z"/>
</g>
<g>
	<path fill="#03B7A1" d="M358.654,373.016h-8.991v5.801h10.042v4.532h-15.553v-24.436h15.045v4.531h-9.535v5.076h8.991V373.016z"/>
	<path fill="#03B7A1" d="M363.474,383.349v-24.436h6.453l5.076,8.955c1.45,2.573,2.864,5.619,3.988,8.374h0.073
		c-0.326-3.227-0.435-6.525-0.435-10.224v-7.105h5.076v24.436h-5.801l-5.221-9.427c-1.45-2.646-3.082-5.764-4.242-8.628h-0.145
		c0.181,3.263,0.253,6.707,0.253,10.695v7.359H363.474z"/>
	<path fill="#03B7A1" d="M388.487,359.276c1.776-0.326,4.387-0.544,7.359-0.544c3.625,0,6.164,0.544,7.904,1.958
		c1.486,1.16,2.283,2.864,2.283,5.111c0,3.082-2.211,5.221-4.313,5.982v0.109c1.703,0.688,2.646,2.283,3.263,4.531
		c0.761,2.792,1.486,5.982,1.958,6.925h-5.656c-0.362-0.688-0.979-2.683-1.668-5.692c-0.688-3.081-1.74-3.879-4.024-3.915h-1.631
		v9.607h-5.474V359.276z M393.961,369.753h2.175c2.755,0,4.387-1.378,4.387-3.517c0-2.212-1.522-3.372-4.061-3.372
		c-1.341,0-2.103,0.073-2.501,0.182V369.753z"/>
	<path fill="#03B7A1" d="M415.531,358.914v24.436h-5.511v-24.436H415.531z"/>
	<path fill="#03B7A1" d="M438.224,382.697c-0.979,0.471-3.299,1.051-6.235,1.051c-8.447,0-12.798-5.293-12.798-12.29
		c0-8.339,5.945-12.943,13.342-12.943c2.863,0,5.039,0.58,6.018,1.088l-1.16,4.351c-1.087-0.472-2.646-0.906-4.641-0.906
		c-4.351,0-7.758,2.646-7.758,8.121c0,4.895,2.9,7.976,7.794,7.976c1.704,0,3.518-0.326,4.641-0.797L438.224,382.697z"/>
	<path fill="#03B7A1" d="M447.43,358.914v9.426h9.1v-9.426h5.511v24.436h-5.511v-10.188h-9.1v10.188h-5.511v-24.436H447.43z"/>
</g>
<circle fill="#03B7A1" cx="471.494" cy="371.385" r="4.423"/>
<g>
	<path fill="#2583E8" d="M483,359.276c2.03-0.362,4.677-0.544,7.433-0.544c4.677,0,7.722,0.762,10.042,2.538
		c2.538,1.885,4.134,4.931,4.134,9.281c0,4.677-1.704,7.903-4.024,9.897c-2.574,2.139-6.526,3.154-11.312,3.154
		c-2.864,0-4.931-0.182-6.272-0.362V359.276z M488.51,379.18c0.472,0.108,1.269,0.108,1.922,0.108
		c5.039,0.036,8.338-2.719,8.338-8.556c0-5.258-2.973-7.759-7.758-7.759c-1.196,0-2.03,0.108-2.502,0.218V379.18z"/>
	<path fill="#2583E8" d="M522.768,373.016h-8.991v5.801h10.043v4.532h-15.554v-24.436h15.046v4.531h-9.535v5.076h8.991V373.016z"/>
	<path fill="#2583E8" d="M527.625,358.914h5.511v19.795h9.716v4.641h-15.227V358.914z"/>
	<path fill="#2583E8" d="M551.659,358.914v24.436h-5.511v-24.436H551.659z"/>
	<path fill="#2583E8" d="M562.208,383.349l-7.831-24.436h6.055l2.973,10.332c0.834,2.937,1.596,5.692,2.176,8.737h0.108
		c0.616-2.937,1.378-5.837,2.212-8.628l3.118-10.441h5.873l-8.23,24.436H562.208z"/>
	<path fill="#2583E8" d="M594.037,373.016h-8.991v5.801h10.043v4.532h-15.554v-24.436h15.046v4.531h-9.535v5.076h8.991V373.016z"/>
	<path fill="#2583E8" d="M598.856,359.276c1.776-0.326,4.387-0.544,7.36-0.544c3.625,0,6.163,0.544,7.903,1.958
		c1.486,1.16,2.284,2.864,2.284,5.111c0,3.082-2.212,5.221-4.314,5.982v0.109c1.704,0.688,2.646,2.283,3.263,4.531
		c0.762,2.792,1.486,5.982,1.958,6.925h-5.656c-0.362-0.688-0.979-2.683-1.667-5.692c-0.689-3.081-1.74-3.879-4.024-3.915h-1.632
		v9.607h-5.475V359.276z M604.331,369.753h2.176c2.755,0,4.387-1.378,4.387-3.517c0-2.212-1.523-3.372-4.061-3.372
		c-1.342,0-2.104,0.073-2.502,0.182V369.753z"/>
</g>
</svg>
